<?xml version="1.0" encoding="utf-8"?>
<!-- Generator: Adobe Illustrator 22.1.0, SVG Export Plug-In . SVG Version: 6.00 Build 0)  -->
<svg version="1.1" id="Слой_1" xmlns="http://www.w3.org/2000/svg" xmlns:xlink="http://www.w3.org/1999/xlink" x="0px" y="0px"
	 viewBox="0 0 1920 1080" enable-background="new 0 0 1920 1080" xml:space="preserve">
<path fill="none" stroke="#CBCBCB" stroke-width="1.0205" stroke-miterlimit="10" d="M718.508,771.17
	c88.9,51.665,203.687,21.359,255.352-67.514c51.747-89.009,21.25-203.742-67.65-255.407c-88.9-51.692-203.551-21.304-255.27,67.705
	C599.275,604.854,629.608,719.505,718.508,771.17L718.508,771.17z"/>
<polygon fill="none" stroke="#CBCBCB" stroke-width="1.0205" stroke-miterlimit="10" points="581.789,984.186 623.662,984.296 
	665.506,984.432 644.475,1020.603 623.443,1056.801 602.603,1020.494 "/>
<polygon fill="none" stroke="#CBCBCB" stroke-width="1.0205" stroke-miterlimit="10" points="1396.697,23.499 1423.921,71.018 
	1451.172,118.509 1423.648,165.864 1396.124,213.219 1341.377,213.056 1286.602,212.892 1259.378,165.373 1232.127,117.882 
	1259.651,70.554 1287.175,23.199 1341.922,23.335 "/>
<polygon fill="none" stroke="#CBCBCB" stroke-width="1.0205" stroke-miterlimit="10" points="1512.494,247.727 1547.083,308.039 
	1581.644,368.297 1546.701,428.418 1511.784,488.485 1442.307,488.321 1372.802,488.103 1338.185,427.818 1303.624,367.506 
	1338.54,307.411 1373.483,247.317 1442.989,247.535 "/>
<polygon fill="none" stroke="#CBCBCB" stroke-width="1.0205" stroke-miterlimit="10" points="1052.494,379.22 1086.156,437.923 
	1119.79,496.653 1085.801,555.138 1051.812,613.65 984.135,613.431 916.484,613.24 882.823,554.537 849.134,495.835 883.15,437.323 
	917.139,378.865 984.817,379.029 "/>
<polyline fill="none" stroke="#CBCBCB" stroke-width="1.0205" stroke-miterlimit="10" points="1330.957,468.053 1144.018,142.159 
	1515.794,143.251 1495.772,188.123 "/>
<polyline fill="none" stroke="#CBCBCB" stroke-width="1.0205" stroke-miterlimit="10" points="1048.19,121.974 1145.791,292.027 
	971.292,291.508 "/>
<polyline fill="none" stroke="#CBCBCB" stroke-width="1.0205" stroke-miterlimit="10" points="1237.883,423.944 1192.656,344.783 
	1052.854,344.455 "/>
<polyline fill="none" stroke="#CBCBCB" stroke-width="1.0205" stroke-miterlimit="10" points="670.007,642.307 602.412,524.383 
	427.258,523.756 "/>
<polyline fill="none" stroke="#CBCBCB" stroke-width="1.0205" stroke-miterlimit="10" points="1430.441,288.262 1506.847,288.48 
	1544.518,354.221 "/>
<polygon fill="none" stroke="#CBCBCB" stroke-width="1.0205" stroke-miterlimit="10" points="348.423,855.187 402.762,855.351 
	457.155,855.515 429.822,902.515 402.489,949.516 375.456,902.351 "/>
<polygon fill="none" stroke="#CBCBCB" stroke-width="1.0205" stroke-miterlimit="10" points="887.061,196.334 932.125,274.868 
	977.161,353.375 931.661,431.664 886.161,509.926 795.651,509.68 705.087,509.407 660.078,430.9 615.014,352.312 660.515,274.077 
	706.015,195.789 796.551,196.061 "/>
<polyline fill="none" stroke="#CBCBCB" stroke-width="1.0205" stroke-miterlimit="10" points="1024.5,517.809 1230.604,518.164 
	1283.115,611.155 "/>
<path fill="none" stroke="#CBCBCB" stroke-width="1.0205" stroke-miterlimit="10" d="M484.215,633.578
	c8.429,1.337,16.803,4.228,24.66,8.784c34.043,19.804,45.637,63.477,25.833,97.547c-19.804,34.043-63.449,45.582-97.52,25.778
	c-10.939-6.356-19.531-15.167-25.505-25.287"/>
<path fill="none" stroke="#CBCBCB" stroke-width="1.0205" stroke-miterlimit="10" d="M1414.974,483.002
	c18.904,10.993,43.263,4.528,54.229-14.321c10.993-18.904,4.556-43.263-14.376-54.257c-18.904-10.993-43.263-4.556-54.257,14.348
	C1389.605,447.649,1396.07,472.009,1414.974,483.002L1414.974,483.002z"/>
<path fill="none" stroke="#CBCBCB" stroke-width="1.0205" stroke-miterlimit="10" d="M1051.271,692.469
	c4.984-35.696,30.049-66.53,66.733-76.031c48.251-12.476,98.064,16.73,110.592,65.285c10.213,39.705-7.455,80.047-40.784,100.278"/>
<polygon fill="none" stroke="#CBCBCB" stroke-width="1.0205" stroke-miterlimit="10" points="1112.462,771.115 1140.531,820.026 
	1168.6,868.963 1140.258,917.709 1111.916,966.483 1055.505,966.319 999.093,966.155 971.051,917.218 942.982,868.281 
	971.324,819.535 999.638,770.761 1056.077,770.925 "/>
<polygon fill="none" stroke="#CBCBCB" stroke-width="1.0205" stroke-miterlimit="10" points="499.573,486.466 525.05,530.848 
	550.501,575.23 524.805,619.475 499.081,663.721 447.907,663.53 396.733,663.393 371.283,618.984 345.805,574.63 371.528,530.384 
	397.224,486.139 448.426,486.303 "/>
<polyline fill="none" stroke="#CBCBCB" stroke-width="1.0205" stroke-miterlimit="10" points="626.308,717.568 494.99,717.077 
	561.358,832.792 "/>
<polyline fill="none" stroke="#CBCBCB" stroke-width="1.0205" stroke-miterlimit="10" points="905.36,663.5 1009.536,663.745 
	1099.423,822.399 "/>
<polyline fill="none" stroke="#CBCBCB" stroke-width="1.0205" stroke-miterlimit="10" points="450.335,930.175 502.764,1022.103 
	682.828,1022.622 773.856,866.017 679.637,700.901 "/>
<path fill="none" stroke="#CBCBCB" stroke-width="1.0205" stroke-miterlimit="10" d="M505.683,946.27
	c21.141,12.275,48.446,5.074,60.721-16.067c12.303-21.168,5.074-48.446-16.067-60.721c-21.141-12.302-48.419-5.074-60.722,16.094
	C477.341,906.716,484.569,933.967,505.683,946.27L505.683,946.27z"/>
<path fill="none" stroke="#CBCBCB" stroke-width="1.0205" stroke-miterlimit="10" d="M415.146,541.241
	c10.093,5.865,23.105,2.428,28.97-7.638c5.865-10.12,2.401-23.132-7.692-28.997c-10.066-5.865-23.132-2.428-28.997,7.665
	C401.589,522.337,405.053,535.376,415.146,541.241L415.146,541.241z"/>
<path fill="none" stroke="#CBCBCB" stroke-width="1.0205" stroke-miterlimit="10" d="M1488.298,200.971
	c7.092,4.119,16.203,1.691,20.322-5.374c4.119-7.092,1.691-16.203-5.401-20.322c-7.065-4.119-16.176-1.691-20.295,5.374
	C1478.805,187.742,1481.205,196.852,1488.298,200.971L1488.298,200.971z"/>
<path fill="none" stroke="#CBCBCB" stroke-width="1.0205" stroke-miterlimit="10" d="M1092.93,833.528
	c6.192,3.601,14.103,1.5,17.649-4.61c3.546-6.11,1.5-14.076-4.692-17.676c-6.11-3.573-14.048-1.364-17.595,4.719
	C1084.747,822.071,1086.82,829.982,1092.93,833.528L1092.93,833.528z"/>
<polygon fill="none" stroke="#CBCBCB" stroke-width="1.0205" stroke-miterlimit="10" points="1511.757,79.501 1549.456,150.07 
	1587.182,220.721 1511.757,220.721 1436.305,220.721 1474.031,150.07 "/>
<polygon fill="none" stroke="#CBCBCB" stroke-width="1.0205" stroke-miterlimit="10" points="362.963,932.549 382.958,969.974 
	402.953,1007.4 362.963,1007.4 323,1007.4 342.968,969.974 "/>
<path fill="none" stroke="#CBCBCB" stroke-width="1.0205" stroke-miterlimit="10" d="M1122.796,360.85
	c47.519,27.606,108.868,11.43,136.473-36.089c27.66-47.573,11.375-108.895-36.144-136.528
	c-47.519-27.633-108.813-11.375-136.473,36.198C1059.046,271.95,1075.277,333.244,1122.796,360.85L1122.796,360.85z"/>
<polygon fill="none" stroke="#CBCBCB" stroke-width="1.0205" stroke-miterlimit="10" points="1591.928,328.825 1571.879,291.317 
	1551.829,253.782 1591.928,253.782 1632,253.782 1611.95,291.317 "/>
<polyline fill="none" stroke="#CBCBCB" stroke-width="1.0205" stroke-miterlimit="10" points="690.193,305.011 599.22,461.561 
	788.477,461.561 "/>
<polygon fill="none" stroke="#CBCBCB" stroke-width="1.0205" stroke-miterlimit="10" points="923.253,845.964 887.872,779.759 
	852.465,713.5 923.253,713.5 994.012,713.5 958.632,779.759 "/>
<path fill-rule="evenodd" clip-rule="evenodd" fill="#CCCCCC" d="M588.854,590.833c4.637,2.701,10.611,1.118,13.312-3.519
	c2.673-4.61,1.091-10.638-3.546-13.312c-4.637-2.701-10.639-1.118-13.339,3.519C582.608,582.159,584.217,588.133,588.854,590.833
	L588.854,590.833z"/>
<path fill-rule="evenodd" clip-rule="evenodd" fill="#CCCCCC" d="M964.554,173.83c3.437,2.019,7.911,0.846,9.929-2.619
	c2.019-3.437,0.818-7.938-2.646-9.929c-3.437-2.019-7.938-0.818-9.929,2.619C959.89,167.365,961.09,171.811,964.554,173.83
	L964.554,173.83z"/>
<path fill-rule="evenodd" clip-rule="evenodd" fill="#CCCCCC" d="M1300.432,56.778c3.655,2.128,8.402,0.9,10.529-2.782
	c2.128-3.655,0.873-8.402-2.81-10.529c-3.655-2.128-8.402-0.873-10.529,2.782C1295.495,49.904,1296.75,54.651,1300.432,56.778
	L1300.432,56.778z"/>
<path fill-rule="evenodd" clip-rule="evenodd" fill="#CCCCCC" d="M643.547,468.763c3.983,2.319,9.111,0.982,11.43-3.001
	s0.927-9.138-3.028-11.43c-3.983-2.319-9.138-0.955-11.457,3.028C638.174,461.343,639.565,466.471,643.547,468.763L643.547,468.763z
	"/>
<path fill-rule="evenodd" clip-rule="evenodd" fill="#CCCCCC" d="M1012.023,746.32c3.983,2.319,9.111,0.982,11.43-3.001
	c2.319-3.983,0.955-9.138-3.028-11.457c-3.983-2.319-9.138-0.927-11.457,3.028C1006.676,738.873,1008.04,744.001,1012.023,746.32
	L1012.023,746.32z"/>
<polygon fill-rule="evenodd" clip-rule="evenodd" fill="#CCCCCC" points="764.745,341.018 793.033,341.1 821.293,341.155 
	807.081,365.623 792.869,390.065 778.821,365.542 "/>
<polygon fill-rule="evenodd" clip-rule="evenodd" fill="#CCCCCC" points="1430.959,118.482 1422.83,104.27 1414.674,90.058 
	1406.436,104.243 1398.198,118.4 1414.592,118.455 "/>
<polygon fill-rule="evenodd" clip-rule="evenodd" fill="#CCCCCC" points="1054.709,262.62 1044.862,245.435 1035.014,228.277 
	1025.085,245.381 1015.128,262.484 1034.932,262.539 "/>
<polygon fill-rule="evenodd" clip-rule="evenodd" fill="#B5D8EC" points="1317.263,256.265 1333.684,256.292 1350.133,256.346 
	1341.868,270.558 1333.603,284.77 1325.419,270.504 "/>
<polygon fill-rule="evenodd" clip-rule="evenodd" fill="#CCCCCC" points="1218.888,578.573 1211.086,564.934 1203.258,551.268 
	1195.347,564.88 1187.436,578.464 1203.176,578.546 "/>
<polygon fill-rule="evenodd" clip-rule="evenodd" fill="#B5D8EC" points="626.471,290.799 617.824,275.687 609.095,260.52 
	600.339,275.605 591.609,290.635 609.068,290.772 "/>
<path fill-rule="evenodd" clip-rule="evenodd" fill="#CCCCCC" d="M1375.857,192.788c3.519,2.046,8.129,0.818,10.175-2.701
	c2.046-3.519,0.818-8.102-2.728-10.147c-3.519-2.046-8.047-0.846-10.12,2.673C1371.138,186.159,1372.31,190.742,1375.857,192.788
	L1375.857,192.788z"/>
<path fill-rule="evenodd" clip-rule="evenodd" fill="#CCCCCC" d="M1491.735,195.079c3.819,2.21,8.756,0.9,10.966-2.919
	c2.237-3.846,0.927-8.756-2.891-10.993c-3.846-2.21-8.756-0.927-10.993,2.919C1486.579,187.905,1487.889,192.843,1491.735,195.079
	L1491.735,195.079z"/>
<path fill-rule="evenodd" clip-rule="evenodd" fill="#CCCCCC" d="M1427.331,293.609c2.946,1.691,6.738,0.709,8.456-2.237
	c1.691-2.946,0.709-6.738-2.237-8.456c-2.946-1.691-6.738-0.709-8.456,2.237C1423.403,288.098,1424.385,291.89,1427.331,293.609
	L1427.331,293.609z"/>
<path fill-rule="evenodd" clip-rule="evenodd" fill="#CCCCCC" d="M1541.518,359.295c2.837,1.637,6.465,0.682,8.074-2.1
	c1.637-2.81,0.682-6.438-2.128-8.102c-2.81-1.609-6.438-0.655-8.074,2.182C1537.781,354.057,1538.763,357.685,1541.518,359.295
	L1541.518,359.295z"/>
<path fill-rule="evenodd" clip-rule="evenodd" fill="#CCCCCC" d="M1603.958,275.714c3.192,1.882,7.338,0.764,9.193-2.428
	c1.882-3.219,0.791-7.392-2.401-9.247c-3.219-1.882-7.365-0.737-9.247,2.482C1599.648,269.713,1600.712,273.832,1603.958,275.714
	L1603.958,275.714z"/>
<polygon fill-rule="evenodd" clip-rule="evenodd" fill="#B5D8EC" points="1183.872,58.824 1200.103,74.946 1183.872,91.176 
	1167.641,74.946 "/>
<polygon fill-rule="evenodd" clip-rule="evenodd" fill="#CCCCCC" points="1027.681,802.84 1040.065,815.197 1027.681,827.582 
	1015.351,815.197 "/>
<path fill-rule="evenodd" clip-rule="evenodd" fill="#CCCCCC" d="M1289.821,466.88c3.819,2.21,8.784,0.927,11.02-2.892
	c2.21-3.846,0.9-8.811-2.946-11.048c-3.819-2.237-8.756-0.873-10.993,2.946S1285.975,464.644,1289.821,466.88L1289.821,466.88z"/>
<path fill-rule="evenodd" clip-rule="evenodd" fill="#CCCCCC" d="M1431.204,494.868c3.573,2.073,8.156,0.873,10.229-2.701
	c2.073-3.601,0.873-8.156-2.701-10.229c-3.573-2.073-8.156-0.873-10.229,2.701C1426.431,488.212,1427.631,492.795,1431.204,494.868
	L1431.204,494.868z"/>
<polygon fill-rule="evenodd" clip-rule="evenodd" fill="#CCCCCC" points="1359.953,356.13 1374.547,370.724 1359.953,385.427 
	1345.332,370.724 "/>
<path fill-rule="evenodd" clip-rule="evenodd" fill="#CCCCCC" d="M1139.149,525.756c4.411,2.563,10.041,1.05,12.603-3.319
	c2.563-4.411,1.05-10.041-3.361-12.603c-4.369-2.563-10.041-1.05-12.561,3.361C1133.267,517.564,1134.78,523.236,1139.149,525.756
	L1139.149,525.756z"/>
<path fill-rule="evenodd" clip-rule="evenodd" fill="#CCCCCC" d="M967.2,298.546c3.873,2.264,8.865,0.927,11.13-2.946
	c2.237-3.873,0.927-8.865-2.946-11.102c-3.874-2.264-8.865-0.927-11.13,2.946C962.017,291.317,963.327,296.309,967.2,298.546
	L967.2,298.546z"/>
<path fill-rule="evenodd" clip-rule="evenodd" fill="#CCCCCC" d="M1022.47,129.83c4.255,2.482,9.738,1.009,12.221-3.246
	c2.455-4.255,1.009-9.711-3.246-12.193c-4.255-2.482-9.711-1.009-12.193,3.246C1016.797,121.892,1018.242,127.347,1022.47,129.83
	L1022.47,129.83z"/>
<path fill-rule="evenodd" clip-rule="evenodd" fill="#CCCCCC" d="M720.854,637.37c2.619,1.528,6.029,0.627,7.556-1.991
	c1.528-2.619,0.627-6.029-2.019-7.556c-2.619-1.528-6.001-0.627-7.529,1.991C717.335,632.46,718.208,635.842,720.854,637.37
	L720.854,637.37z"/>
<path fill-rule="evenodd" clip-rule="evenodd" fill="#CCCCCC" d="M480.56,639.88c3.464,2.019,7.938,0.846,9.957-2.646
	c2.019-3.464,0.846-7.938-2.646-9.957c-3.464-2.019-7.938-0.846-9.957,2.646C475.895,633.387,477.095,637.861,480.56,639.88
	L480.56,639.88z"/>
<path fill-rule="evenodd" clip-rule="evenodd" fill="#CCCCCC" d="M741.722,518.846c5.047,2.919,11.593,1.2,14.512-3.819
	c2.919-5.047,1.2-11.593-3.846-14.512c-5.019-2.919-11.566-1.2-14.485,3.873C734.984,509.38,736.703,515.927,741.722,518.846
	L741.722,518.846z"/>
<path fill-rule="evenodd" clip-rule="evenodd" fill="#CCCCCC" d="M620.825,727.034c5.21,3.028,11.893,1.255,14.921-3.955
	c3.028-5.21,1.282-11.921-3.928-14.948s-11.921-1.228-14.948,3.983C613.841,717.295,615.614,724.006,620.825,727.034
	L620.825,727.034z"/>
<polygon fill-rule="evenodd" clip-rule="evenodd" fill="#CCCCCC" points="788.504,449.177 800.861,461.561 788.504,473.918 
	776.12,461.561 "/>
<path fill-rule="evenodd" clip-rule="evenodd" fill="#CCCCCC" d="M369.319,749.566c5.046,2.919,11.593,1.228,14.539-3.846
	c2.946-5.074,1.2-11.621-3.819-14.567c-5.074-2.946-11.648-1.2-14.594,3.873C362.499,740.1,364.272,746.62,369.319,749.566
	L369.319,749.566z"/>
<path fill-rule="evenodd" clip-rule="evenodd" fill="#B5D8EC" d="M1479.432,368.378c3.628,2.1,8.265,0.873,10.366-2.755
	c2.1-3.628,0.873-8.238-2.755-10.339c-3.546-2.073-8.183-0.846-10.284,2.755C1474.659,361.668,1475.886,366.305,1479.432,368.378
	L1479.432,368.378z"/>
<path fill-rule="evenodd" clip-rule="evenodd" fill="#CCCCCC" d="M757.707,712.331c3.737,2.182,8.62,0.9,10.802-2.864
	c2.21-3.792,0.927-8.674-2.837-10.884c-3.792-2.182-8.674-0.9-10.884,2.892C752.606,705.238,753.915,710.121,757.707,712.331
	L757.707,712.331z"/>
<path fill-rule="evenodd" clip-rule="evenodd" fill="#CCCCCC" d="M1181.265,689.716c1.496,5.792,7.469,9.33,13.262,7.833
	c5.774-1.479,9.294-7.47,7.798-13.262s-7.47-9.294-13.226-7.797C1183.305,677.986,1179.768,683.923,1181.265,689.716
	L1181.265,689.716z"/>
<path fill-rule="evenodd" clip-rule="evenodd" fill="#CCCCCC" d="M524.832,913.345c3.001,1.746,6.901,0.737,8.647-2.264
	c1.746-3.001,0.709-6.929-2.291-8.674c-3.028-1.746-6.929-0.709-8.674,2.291C520.768,907.725,521.804,911.599,524.832,913.345
	L524.832,913.345z"/>
<path fill-rule="evenodd" clip-rule="evenodd" fill="#CCCCCC" d="M487.57,936.313c2.319,1.337,5.319,0.546,6.71-1.8
	c1.337-2.346,0.546-5.347-1.773-6.71c-2.346-1.364-5.347-0.546-6.71,1.773C484.433,931.948,485.224,934.949,487.57,936.313
	L487.57,936.313z"/>
<path fill-rule="evenodd" clip-rule="evenodd" fill="#CCCCCC" d="M399.052,896.487c3.819,2.21,8.756,0.873,10.966-2.946
	c2.21-3.792,0.9-8.729-2.892-10.939c-3.846-2.237-8.784-0.927-10.993,2.891C393.924,889.312,395.206,894.25,399.052,896.487
	L399.052,896.487z"/>
<path fill-rule="evenodd" clip-rule="evenodd" fill="#CCCCCC" d="M557.293,839.748c3.846,2.237,8.811,0.927,11.048-2.891
	c2.237-3.874,0.9-8.811-2.946-11.048c-3.819-2.237-8.756-0.927-10.993,2.946C552.165,832.573,553.474,837.511,557.293,839.748
	L557.293,839.748z"/>
<path fill-rule="evenodd" clip-rule="evenodd" fill="#CCCCCC" d="M422.266,528.993c3.355,1.964,7.692,0.818,9.629-2.51
	c1.937-3.383,0.791-7.693-2.564-9.656c-3.355-1.937-7.665-0.791-9.602,2.564C417.765,522.747,418.911,527.057,422.266,528.993
	L422.266,528.993z"/>
<polygon fill-rule="evenodd" clip-rule="evenodd" fill="#B5D8EC" points="612.314,992.643 620.634,1000.963 612.314,1009.255 
	604.021,1000.963 "/>
<path fill-rule="evenodd" clip-rule="evenodd" fill="#CCCCCC" d="M729.065,1000.253c2.837,1.664,6.547,0.709,8.238-2.182
	c1.664-2.864,0.655-6.547-2.21-8.211c-2.864-1.664-6.547-0.709-8.211,2.155C725.191,994.907,726.201,998.589,729.065,1000.253
	L729.065,1000.253z"/>
<path fill-rule="evenodd" clip-rule="evenodd" fill="#CCCCCC" d="M1096.804,826.9c2.51,1.473,5.729,0.627,7.174-1.855
	c1.446-2.482,0.6-5.728-1.909-7.201c-2.482-1.418-5.701-0.546-7.147,1.937C1093.476,822.262,1094.322,825.454,1096.804,826.9
	L1096.804,826.9z"/>
<rect x="1181.384" y="772.599" transform="matrix(0.7209 -0.6931 0.6931 0.7209 -208.9908 1042.1276)" fill-rule="evenodd" clip-rule="evenodd" fill="#CCCCCC" width="15.857" height="15.857"/>
<polygon fill-rule="evenodd" clip-rule="evenodd" fill="#B5D8EC" points="649.658,886.066 636.046,878.183 622.434,870.245 
	622.407,885.984 622.352,901.724 636.019,893.895 "/>
<path fill-rule="evenodd" clip-rule="evenodd" fill="#CCCCCC" d="M1279.241,616.775c3.464,2.019,7.883,0.846,9.875-2.591
	c1.991-3.41,0.846-7.883-2.619-9.902c-3.41-1.991-7.883-0.764-9.875,2.646C1274.658,610.364,1275.831,614.783,1279.241,616.775
	L1279.241,616.775z"/>
<path fill="none" stroke="#CBCBCB" stroke-width="1.0205" stroke-miterlimit="10" d="M1276.186,621.985
	c6.383,3.71,14.485,1.555,18.14-4.719c3.655-6.274,1.555-14.512-4.801-18.222c-6.301-3.628-14.485-1.391-18.14,4.883
	C1267.757,610.201,1269.912,618.33,1276.186,621.985L1276.186,621.985z"/>
<polygon fill-rule="evenodd" clip-rule="evenodd" fill="#B5D8EC" points="345.15,905.025 350.115,913.645 345.123,922.237 
	335.166,922.21 330.201,913.59 335.221,904.997 "/>
<path fill-rule="evenodd" clip-rule="evenodd" fill="#CCCCCC" d="M1143.064,235.26c6.328,3.655,14.485,1.528,18.167-4.774
	c3.655-6.301,1.5-14.512-4.828-18.195c-6.301-3.655-14.485-1.5-18.167,4.828C1134.553,223.449,1136.762,231.578,1143.064,235.26
	L1143.064,235.26z"/>
<polygon fill-rule="evenodd" clip-rule="evenodd" fill="#CCCCCC" points="1221.734,434.828 1234.091,447.24 1221.734,459.57 
	1209.35,447.24 "/>
<polygon fill-rule="evenodd" clip-rule="evenodd" fill="#CCCCCC" points="1140.799,119.764 1132.616,134.058 1124.378,148.406 
	1116.085,134.14 1107.82,119.928 1124.323,119.819 "/>
<path fill-rule="evenodd" clip-rule="evenodd" fill="#CCCCCC" d="M684.356,873.409c3.846,2.21,8.838,0.9,11.048-2.946
	c2.237-3.819,0.9-8.784-2.946-10.993c-3.819-2.237-8.756-0.927-10.993,2.891C679.255,866.208,680.537,871.172,684.356,873.409
	L684.356,873.409z"/>
<polygon fill-rule="evenodd" clip-rule="evenodd" fill="#CCCCCC" points="921.813,873.9 933.489,885.521 921.813,897.196 
	910.111,885.521 "/>
<path fill-rule="evenodd" clip-rule="evenodd" fill="#CCCCCC" d="M781.712,820.598c3.983,2.319,9.111,0.982,11.43-3.001
	c2.319-3.983,0.955-9.138-3.028-11.457c-3.983-2.319-9.138-0.955-11.457,3.028C776.338,813.151,777.729,818.28,781.712,820.598
	L781.712,820.598z"/>
<polygon fill-rule="evenodd" clip-rule="evenodd" fill="#B5D8EC" points="431.049,684.643 444.743,698.364 431.049,712.058 
	417.328,698.364 "/>
<path fill-rule="evenodd" clip-rule="evenodd" fill="#CCCCCC" d="M334.621,985.168c2.864,1.664,6.574,0.682,8.265-2.21
	s0.709-6.601-2.182-8.265c-2.891-1.664-6.574-0.709-8.265,2.182C330.747,979.795,331.729,983.504,334.621,985.168L334.621,985.168z"
	/>
<polyline fill="none" stroke="#CBCBCB" stroke-width="1.0205" stroke-miterlimit="10" points="422.184,934.704 453.99,990.133 
	530.37,990.133 "/>
</svg>
