<?xml version="1.0" encoding="utf-8"?><svg id="ready_svg_convertered_hosting" image-rendering="optimizeQuality" baseProfile="basic" version="1.1" x="0px" y="0px" width="210" height="210" xmlns="http://www.w3.org/2000/svg" xmlns:xlink="http://www.w3.org/1999/xlink"><g id=".__D0.__9C.__D0.__BE.__D0.__BD.__D1.__82.__D0.__B0.__D0.__B6.__D0.__BD.__D1.__8B.__D0.__B9-.__D0.__BA.__D0.__B0.__D0.__B4.__D1.__80-1" overflow="visible"><g id="sat" transform="translate(105 34)"><animateTransform attributeName="transform" additive="replace" type="translate" repeatCount="indefinite" dur="4.208s" keyTimes="0;1" values="105,105;105,105"/><animateTransform attributeName="transform" additive="sum" type="rotate" repeatCount="indefinite" dur="4.208s" keyTimes="0;.99;1" values="0,0,0;360,0,0;360,0,0"/><animateTransform attributeName="transform" additive="sum" type="translate" repeatCount="indefinite" dur="4.208s" keyTimes="0;1" values="0,-71;0,-71"/><path fill="#989898" stroke="none" d="M7.4 -10.65Q6.9 -10.2 6.9 -9.6L6.95 -6.3 4.7 -6.3 4.65 -9.9Q4.65 -10.6 4.25 -11.15 3.95 -11.6 3.1 -12.1 1.95 -12.7 .05 -12.8L-.1 -12.8Q-1.95 -12.7 -3.2 -12.1 -4 -11.55 -4.3 -11.15 -4.7 -10.6 -4.7 -9.9L-4.7 -6.3 -6.95 -6.3 -6.95 -9.7Q-7 -10.25 -7.45 -10.7 -7.95 -11.1 -8.5 -11.1L-20.8 -11.05Q-21.35 -11.05 -21.85 -10.65 -22.25 -10.25 -22.25 -9.6L-22.25 -1.1Q-22.25 -.55 -21.85 -.05 -21.35 .35 -20.9 .35L-8.4 .35Q-7.85 .35 -7.4 -.1 -6.95 -.55 -6.95 -1.1L-6.95 -4.4 -4.7 -4.4 -4.7 -2.2Q-4.7 -1.5 -4.3 -.95 -5.2 0 -5.6 .8 -6.1 1.8 -6.25 2.95L-6.3 3 -6.25 3.6 -5.95 4.05 -5.9 4.15 -5.4 4.5Q-5.1 4.65 -4.8 4.65L-.95 4.65 -.95 7.05Q-1.6 7.3 -2.1 7.8 -2.5 8.15 -2.75 8.7 -2.95 9.15 -2.95 9.85L-2.95 9.9Q-2.95 11.15 -2.1 11.95 -1.15 12.8 0 12.8 1.2 12.8 2.05 11.95 2.85 11.15 2.95 9.9L2.95 9.85Q2.9 8.7 2.1 7.75 1.55 7.25 .9 7.05L.9 4.65 4.75 4.65Q5.15 4.65 5.35 4.5 5.7 4.35 5.9 4.1L6.15 3.55Q6.25 3.35 6.25 2.95 6.1 1.7 5.6 .8 5.05 -.2 4.25 -.95 4.7 -1.45 4.7 -2.2L4.7 -4.4 6.95 -4.4 6.95 -1.1Q6.95 -.5 7.4 -.05 7.8 .35 8.35 .35L20.8 .35Q21.45 .35 21.8 -.1 22.2 -.5 22.2 -1.1L22.25 -9.7Q22.2 -10.25 21.75 -10.7 21.35 -11.1 20.7 -11.1L8.4 -11.05Q7.8 -11.05 7.4 -10.65M2.25 -10.45Q2.8 -10.15 2.8 -9.9L2.85 -2.2Q2.85 -2.1 2.7 -1.95 1.45 -2.6 0 -2.55 -1.45 -2.65 -2.75 -1.95 -2.9 -2.1 -2.9 -2.2L-2.9 -9.9Q-2.9 -10.15 -2.3 -10.45 -1.45 -10.95 -.1 -10.95L0 -10.95Q1.3 -10.95 2.25 -10.45M8.95 -1.65L8.95 -9.05 20.25 -9.05 20.25 -1.65 8.95 -1.65M2.95 .35Q4.05 1.3 4.35 2.8L-4.4 2.8Q-4.1 1.35 -3 .4 -2.45 -.1 -1.65 -.45 -.8 -.75 0 -.75 1.7 -.75 2.95 .35M.75 9.05Q1.1 9.4 1.1 9.85 1.1 10.35 .75 10.65 .45 11 0 11 -.5 10.95 -.8 10.65 -1.15 10.3 -1.15 9.9 -1.15 9.5 -.8 9.05 -.4 8.75 0 8.75 .45 8.75 .75 9.05M-8.95 -9.05L-8.95 -1.65 -20.25 -1.65 -20.3 -9.05 -8.95 -9.05Z"/></g><g id="34.__2C5" transform="translate(105 105)"><path fill="#989898" stroke="none" d="M18.65 -44.15Q9.75 -47.9 .05 -47.9 -9.8 -47.9 -18.65 -44.15 -27.2 -40.5 -33.85 -33.85 -40.55 -27.25 -44.15 -18.65 -47.9 -9.7 -47.9 .05 -47.9 9.8 -44.15 18.65 -40.55 27.3 -33.85 33.9 -27.25 40.55 -18.65 44.15 -9.7 47.9 .05 47.9 9.8 47.9 18.65 44.15 27.3 40.5 33.9 33.9 40.55 27.25 44.15 18.65 47.9 9.8 47.9 .1 47.9 -9.65 44.15 -18.65 40.55 -27.2 33.9 -33.85 27.2 -40.45 18.65 -44.15M23 -27.6L23.8 -26.45Q23.9 -26.15 24 -25.15 24 -24.25 24.15 -23.8 24.3 -23.2 24.7 -22.9 25.2 -22.35 26 -22.5L26.6 -22.85 27.15 -23.55 28.45 -24.3Q29.6 -25.15 30.4 -26.45L30.7 -26.95Q30.85 -27.2 31.1 -27.4L33.3 -28.35Q34 -28.75 34.25 -29.05L34.85 -29.75Q40 -23.7 42.75 -16.4 45.7 -8.9 45.85 -.55L45.6 -.5Q44.75 -.25 44.25 .6L43.25 4.05Q43 5.15 42.5 5.95 42.2 6.7 41.75 7.15 41.6 7.4 41.5 7.4L41.25 7.15Q40.8 6.65 40.35 5.7L39.25 3.15 38.85 1.9Q38.2 .05 38 -.35 37.55 -1.5 37 -2.4 36.3 -3.6 35.15 -4.6 34.1 -5.45 32.9 -5.85 32.55 -5.9 31.85 -5.9L29.9 -5.85Q29.45 -6.05 28.75 -6.65 28.2 -7.15 27.5 -7.5 26.45 -7.95 25.65 -7.7 24.7 -7.45 24.25 -6.55 23.7 -5.7 23.85 -4.7 23.9 -3.8 24.5 -3 25.1 -2.3 26.15 -1.8 27.1 -1.35 28.35 -1.05L30.2 -.75Q31.55 -.6 31.7 -.5 31.6 -.25 31.05 .2L29.7 1.25 29.7 1.3 28.15 2.35Q27.25 2.9 26.7 3.05 26 3.25 25.6 3.1 25.05 2.95 24.6 2.4 24.05 1.55 23.15 -.35L22.1 -2.7Q21.65 -3.5 21.4 -3.75L20.75 -4.6Q19.85 -5.5 18.8 -5.95L18.75 -5.95Q18.1 -6.2 17.65 -6.05 17.2 -6 16.85 -5.65 16.6 -5.45 16.4 -4.9 16.05 -4 16.4 -2.4 16.7 -.9 17.55 1.15 18.5 3.4 19.5 5.1 20.5 6.6 21.6 7.5 22.15 8 23.4 8.65L23.6 8.7 24.5 9.15Q24.85 9.4 24.85 9.55 24.75 10.05 24.15 11L19.3 17.95Q18.8 19 18.25 20.5 18.1 20.95 17.7 22.9L17.25 25.15Q17.1 25.95 16.65 26.55 16.3 27.1 15.45 27.95L12.7 30.45 12.65 30.45 11.2 31.85Q9 33.95 7.95 34.7 7.3 35.1 7.05 35.1 6.75 35.05 6.3 34.5L1.7 26.85Q1.25 26 .85 24.9 .65 24.25 .45 23.05L.45 20.85Q.5 19.5 .35 18.75 .05 17.25 -.6 16.4 -1.4 15.15 -3 14.55 -3.85 14.15 -5.55 13.9 -6.95 13.65 -8.5 13.55L-10.5 13.3Q-12.45 12.95 -13.5 12.65 -14.65 12.3 -15.4 11.7 -16.05 11.1 -16.45 10.2 -16.85 9.05 -17 7.5L-17.05 6.9Q-17.3 4.3 -17.3 3.3 -17.3 1.3 -16.75 -.25 -16.15 -1.7 -14.9 -2.9 -14.35 -3.45 -12.25 -4.8 -10.85 -5.7 -9.35 -6.25 -8.3 -6.7 -6.35 -7.25 -4.9 -7.7 -3.6 -7.85 -2.4 -8 -1.55 -7.85 -1 -7.7 -.2 -7.2L1.05 -5.95Q1.5 -5.35 2.35 -4.85 2.7 -4.6 3.6 -4.25L4.2 -4Q5.1 -3.5 5.85 -3.8 6.55 -4 7.1 -4.85L7.4 -5.2Q8.25 -6.1 8.5 -6.3 9.35 -6.75 10.55 -6.7 11.7 -6.45 12.8 -6.55 14 -6.55 15.05 -7L15.3 -7.1Q16.5 -7.55 16.85 -8.6 17.3 -9.6 16.85 -10.8L16.75 -11.05Q16.6 -11.4 15.95 -12.55 15.2 -13.9 14.55 -14.6 13.65 -15.8 12.8 -16.35 11.45 -17.2 10.35 -16.45L9.75 -15.85Q9.5 -15.5 9.35 -15.1L8.9 -13.65 8.9 -13.6Q8.95 -13.6 8.7 -13.4 8.5 -13.35 8.35 -13.6 8.2 -14.25 8 -14.6 7.6 -15.9 7.15 -16.7 6.65 -17.9 6.1 -18.35L6 -18.4Q5.25 -19 4.35 -18.85 3.3 -18.75 2.8 -18.1L2.75 -17.95Q2.15 -17.3 2.45 -15.95 2.5 -15.5 2.85 -14.75L3.55 -13.35Q3.55 -13.1 3.35 -12.9L2.75 -12.35Q2.35 -11.9 2.2 -12.05 2 -12.1 2.15 -12.55 2.3 -12.85 2.3 -13.3L2.15 -14.1 1.95 -14.65 1.5 -15.45Q.85 -16.4 -.15 -16.95 -1.6 -17.75 -3.75 -17.6L-3.85 -17.6Q-4.8 -17.45 -5.55 -16.85 -6.15 -16.4 -6.65 -15.7L-7.1 -14.9 -7.65 -13.45Q-7.85 -13.05 -8.25 -13L-10.75 -12.95Q-12.95 -13.1 -13.25 -13.25 -13.4 -13.3 -13.4 -13.45 -13.55 -14.1 -13.35 -15.45 -13.1 -16.9 -12.85 -17.35L-12.85 -17.4 -12.4 -17.85Q-12.1 -18.05 -11.9 -18.05 -11.5 -18.15 -11.2 -18L-10.2 -17.8Q-9.2 -17.6 -8.9 -17.6 -8.1 -17.6 -7.5 -17.9L-7.35 -18Q-6.75 -18.5 -6.6 -19.3 -6.5 -20.15 -6.95 -20.85L-8.4 -22.65Q-8.55 -23.05 -8.35 -23.1 -8.25 -23.2 -7.1 -23.35L-5.85 -23.5 -3.8 -24.15Q-2.8 -24.6 -2.15 -25.2 -1.7 -25.65 -1.05 -26.7 -.7 -27.45 -.4 -27.65 0 -28 .6 -28.15 1 -28.35 2.15 -28.6L4.1 -29.05Q4.9 -29.3 5.8 -29.75 6.15 -29.95 7.45 -30.85 8.4 -31.6 9 -31.9 9.6 -32.3 10.7 -32.7 11.3 -32.95 12.85 -33.4 13.6 -33.65 14.1 -33.65 14.65 -33.65 14.95 -33.55 15.4 -33.55 16 -33.25 16.7 -32.95 17.95 -32.1L23 -27.6M26 -25.3L26 -25.6 25.9 -26.45Q25.8 -26.95 25.6 -27.4 25.25 -28.1 24.6 -28.95 24.1 -29.6 22 -31.4L19.15 -33.8 16.85 -35.2 15.35 -35.65Q14.9 -35.75 13.9 -35.75L12.25 -35.45 9.9 -34.7 7.95 -33.8 6.15 -32.55Q5.6 -32.05 4.85 -31.6 3.95 -31.2 3.4 -31.1L-.15 -30.15Q-1.2 -29.75 -1.85 -29.2 -2.2 -28.85 -2.9 -27.8 -3.25 -26.95 -3.65 -26.75 -3.9 -26.45 -4.65 -26.1 -5.3 -25.75 -6.3 -25.6L-8.55 -25.3 -9.45 -24.95Q-11.45 -23.75 -10.25 -21.65L-9.2 -20.35Q-8.9 -20.05 -8.85 -19.9L-8.8 -19.8 -8.7 -19.7 -8.85 -19.7 -11 -20.15Q-11.6 -20.2 -12.2 -20.15 -13 -20 -13.55 -19.65 -14.2 -19.15 -14.65 -18.4 -15.2 -17.35 -15.4 -15.65 -15.7 -13.75 -15.4 -12.85 -15 -11.9 -14.35 -11.5 -13.7 -11.1 -11.15 -10.95 -8.8 -10.8 -7.9 -11 -7.05 -11.15 -6.55 -11.6 -6.1 -11.9 -5.8 -12.6 -5.6 -12.85 -5.45 -13.5L-4.95 -14.55Q-4.85 -14.7 -4.3 -15.25L-3.6 -15.6Q-1.95 -15.6 -1.15 -15.2 -.55 -14.9 -.3 -14.4 .1 -13.8 .15 -13.4 .3 -12.95 .1 -12.35 -.1 -11.8 -.1 -11.3 0 -10.9 .2 -10.6 .5 -10.2 .7 -10.1 1.25 -9.65 1.9 -9.75 2.45 -9.75 3.1 -10.2 3.5 -10.35 4.6 -11.55L4.95 -11.85 5.4 -12.45 5.4 -12.5Q5.6 -12.75 5.6 -13.35 5.6 -13.65 5.4 -14L5.1 -14.7Q4.7 -15.45 4.4 -16.45 4.35 -16.9 4.5 -16.9 4.75 -16.9 4.9 -16.55 5.35 -15.9 6.1 -13.95L6.6 -12.6Q7.05 -11.9 7.2 -11.8L7.25 -11.8Q7.7 -11.45 8.1 -11.45 8.65 -11.35 9.05 -11.5 10.05 -11.75 10.55 -12.45 10.85 -12.75 10.9 -13.15 11 -13.3 11.1 -13.85L11.35 -14.55 11.5 -14.7 11.7 -14.55Q12.25 -14.25 12.9 -13.4 13.55 -12.6 14.15 -11.55L14.85 -10.25 14.9 -10.1Q15.05 -9.6 14.95 -9.45 14.85 -9.15 14.45 -9L14.3 -8.95Q13.55 -8.65 12.7 -8.65 11.85 -8.6 10.85 -8.75L10.7 -8.75Q8.75 -8.9 7.5 -8.15 6.8 -7.65 5.8 -6.55L5.4 -6Q5.25 -5.85 5.1 -5.9L4.35 -6.2Q3.8 -6.35 3.45 -6.6 2.85 -6.95 2.6 -7.25 1.85 -8.2 1.05 -8.85 0 -9.6 -1.2 -9.9 -2.25 -10.05 -3.95 -9.9 -4.75 -9.8 -6.95 -9.25L-10.15 -8.2Q-12 -7.4 -13.4 -6.55L-14.95 -5.55Q-16.05 -4.75 -16.4 -4.4 -18 -2.8 -18.7 -.95 -19.35 1 -19.35 3.15 -19.35 4.85 -19.15 7.1L-19.1 7.65Q-18.85 9.7 -18.35 10.9 -17.8 12.35 -16.75 13.25 -15.75 14.15 -14.15 14.6 -12.7 15.1 -10.8 15.3 -10.6 15.35 -8.7 15.55L-6 15.9Q-4.6 16.1 -3.75 16.45 -2.7 16.85 -2.3 17.55 -1.85 18.15 -1.7 19.1 -1.55 19.8 -1.6 21.05L-1.6 23.2Q-1.5 24.15 -1.1 25.5 -.8 26.4 -.2 27.65L2.7 32.85Q3.75 34.65 4.75 35.8 5.75 36.95 6.8 37.1 7.85 37.25 9.15 36.35 9.85 35.9 10.8 35 11.2 34.7 12.6 33.3L17 29.3Q17.9 28.4 18.35 27.65L18.35 27.6Q19 26.8 19.2 25.8 19.45 25.1 19.6 23.9L20.25 21.05 21.15 18.85 24.2 14.4Q25.4 12.9 25.9 12.05 26.85 10.55 26.85 9.7 27 8.6 26.2 7.9 25.6 7.3 24.45 6.85L24.3 6.75Q23.35 6.3 22.85 5.9 21.95 5.1 21.25 3.95 20.2 2.15 19.4 .35L18.6 -1.75Q18 -3.7 18.25 -3.9 18.85 -4.35 20.25 -1.7L22.1 2.2Q22.5 2.95 23 3.65 23.95 4.8 25.05 5.1 26 5.35 27.3 5.05 28.3 4.7 29.25 4.1 29.85 3.75 30.95 2.95L32.45 1.75Q33.35 .85 33.55 .5L33.75 .05Q34 -.65 33.75 -1.25 33.5 -1.9 32.85 -2.25 32.75 -2.35 32.4 -2.45 31.75 -2.65 30.45 -2.8L28.8 -3.05 27.05 -3.65Q26.4 -4 26.1 -4.3L25.85 -4.9Q25.85 -5.25 26 -5.5 26.1 -5.7 26.2 -5.7 26.4 -5.8 26.55 -5.65 26.85 -5.55 27.4 -5L28.3 -4.35 29.25 -3.9Q29.7 -3.75 30.2 -3.75L31.05 -3.8Q31.9 -3.95 32.35 -3.8 33 -3.65 33.8 -2.95 34.6 -2.4 35.25 -1.3 35.6 -.8 36.1 .5 36.4 1.05 36.85 2.55L37.3 3.9Q37.95 5.6 38.5 6.7 39.25 8.05 39.75 8.6 40.6 9.45 41.6 9.45 42.55 9.45 43.3 8.55 43.9 7.9 44.35 6.9 44.9 5.85 45.2 4.7 45.5 4.05 45.65 3.1L45.7 2.9Q45.25 11.45 41.65 19.1 38.25 26.5 32.35 32.4 26 38.8 17.8 42.25 9.35 45.85 0 45.85 -8.15 45.85 -15.65 43.1 -23 40.45 -28.95 35.55L-28.85 32.85 -28.55 31.6Q-28.1 30.2 -27.15 28.35L-26.45 26.9Q-26.15 26.25 -26.15 25.65 -26.1 24.6 -26.9 23.8 -27.4 23.3 -28.25 22.8L-31.6 21.1Q-32.5 20.6 -33.1 20.1 -33.15 20.05 -33.65 19.3L-34.05 18.35Q-34.5 17.15 -34.85 16.65 -35.4 15.7 -36.7 14.4L-41.15 10.4 -42.9 9.1 -45.15 8Q-45.85 3.95 -45.85 .05L-45.75 -3.2 -43.6 -4.8Q-41.15 -6.7 -40.8 -7 -39.55 -7.95 -38.4 -9 -37.25 -10.05 -36.85 -10.8 -36.25 -11.75 -36.25 -12.75L-36.35 -13.55Q-36.45 -13.65 -36.6 -14.35 -37.05 -15.3 -37.05 -16.05 -37.2 -16.5 -37.1 -17.95L-37.4 -21.7Q-37.55 -22.35 -38.05 -23.65L-38.55 -24.75 -37.3 -26.6 -36.65 -24.85Q-36.4 -24.1 -35.5 -22.2 -34.8 -21 -34.15 -20.45 -33.6 -19.9 -33.25 -19.8 -32.65 -19.6 -32.15 -19.65 -31.55 -19.75 -31.15 -20.15L-30.8 -20.8Q-30.6 -21.25 -30.5 -22.4 -30.35 -23.5 -30.2 -23.8L-29.9 -24.2 -29.45 -24.6Q-28.8 -25.1 -28.45 -25.65 -28.05 -26.1 -27.85 -27.15 -27.5 -28.15 -27.15 -28.75L-26.25 -29.85 -25 -31.05Q-24.05 -31.9 -23.5 -32.5 -21.95 -34.05 -21.2 -35.25 -20 -36.9 -19.55 -39 -19.3 -39.65 -19.2 -40.65L-19.1 -41.7Q-9.9 -45.8 0 -45.8 9.3 -45.8 17.85 -42.2 25.9 -38.85 32.4 -32.4L33.4 -31.4Q33.1 -30.7 32.85 -30.55L32.35 -30.2 30 -29.15Q29.45 -28.85 29.15 -28.4L28.6 -27.5Q28.2 -26.8 27.65 -26.35 27.25 -25.9 26.4 -25.55L26 -25.3M-21.3 -40.6Q-21.4 -39.85 -21.55 -39.5 -21.9 -37.95 -22.9 -36.4 -23.8 -35.1 -24.95 -33.95L-27.75 -31.2Q-28.55 -30.4 -28.8 -29.9 -29.2 -29.35 -29.4 -28.8 -29.65 -28.15 -29.75 -27.75 -30.1 -26.85 -30.15 -26.8L-31.45 -25.55Q-31.85 -25.05 -32 -24.65L-32.35 -23.65 -32.6 -21.85 -32.75 -21.95Q-33.25 -22.45 -33.65 -23.25 -34.15 -24.05 -34.75 -25.6L-34.8 -25.6 -35.8 -28.65Q-33.8 -31 -32.4 -32.4 -27.7 -37.15 -21.3 -40.6M-39.85 -22.65L-39.4 -21.3Q-39.15 -20.1 -39.25 -17.95 -39.25 -16.45 -39.15 -15.85 -39.1 -14.95 -38.6 -13.65L-38.3 -12.7Q-38.3 -12.35 -38.6 -11.9 -39.05 -11.2 -39.8 -10.5L-45.45 -5.9Q-44.25 -14.9 -39.85 -22.65M-33.95 22.1Q-33.2 22.7 -30.65 23.9 -29.6 24.5 -29.4 24.5L-28.3 25.25Q-28.15 25.4 -28.15 25.6L-28.4 26.35Q-28.55 26.5 -28.9 27.4 -30.1 29.65 -30.55 31 -30.9 32.25 -30.9 32.9L-30.9 33.6 -30.95 33.8Q-31.65 33.25 -32.4 32.4 -36.75 28.1 -40 22.4 -43.2 16.8 -44.6 10.55L-44 10.9Q-43.05 11.5 -42.35 12.05L-37.65 16.3Q-36.55 17.6 -35.95 19.1 -35.2 21.1 -33.95 22.1Z"/><path fill="#989898" stroke="none" d="M-18.05 -30.15Q-18.8 -29.6 -18.95 -28.8 -19.1 -28.05 -18.95 -27.35 -18.8 -26.6 -18.4 -25.95 -18 -25.4 -18 -24.85 -17.95 -24.55 -18.1 -23.9 -18.2 -23.3 -18.2 -22.5 -18.05 -21.55 -17.3 -21.1 -16.65 -20.65 -15.75 -20.8 -15.3 -20.8 -14.5 -21.2 -13.8 -21.5 -13.3 -21.9 -12.75 -22.35 -12.5 -22.75 -12.1 -23.3 -12.1 -23.9 -12.1 -24.45 -12.35 -25.1L-13.2 -26.95Q-14.05 -28.6 -14.55 -29.25 -15.95 -30.8 -17.2 -30.5L-18.05 -30.15M-16.45 -28.3L-16.15 -27.95 -14.75 -25.3Q-14.5 -24.9 -14.3 -24.35L-14.2 -24.1Q-14.1 -24 -14.25 -23.95 -14.4 -23.5 -14.9 -23.2 -15.4 -22.75 -15.95 -22.85 -16.15 -22.85 -16.15 -23.05L-16.05 -23.5Q-15.8 -24.55 -15.9 -25.15 -15.95 -26.1 -16.65 -27.15 -16.9 -27.45 -16.95 -27.8 -17 -28.1 -16.95 -28.3L-16.85 -28.45Q-16.75 -28.55 -16.45 -28.3Z"/><path fill="#989898" stroke="none" d="M25.45 21.75Q24.7 21.85 23.95 22.35 23.3 22.75 22.75 23.4 22.45 23.8 21.9 24.9 21.45 25.8 21.3 26.65L21.25 26.65Q21.05 27.45 21.05 28.35 20.95 29.25 21.35 29.8 21.35 29.95 21.5 30 21.95 30.65 22.75 30.55 23.35 30.55 23.9 30.2L24.3 29.9Q24.85 29.45 25.9 28.15L27.35 26.1 27.6 24.8Q27.7 24.2 27.6 23.55 27.4 22.8 26.9 22.25 26.15 21.75 25.45 21.75M24.4 24.65L25.1 24Q25.8 23.55 25.7 24.6 25.45 25.35 25.4 25.45 25.2 25.85 24.2 27.15 23.5 28.1 23.25 28.25 22.85 28.6 23.15 27.4L23.15 27.35Q23.35 26.65 23.8 25.75 24.05 25.05 24.4 24.65Z"/></g></g></svg>